0.11m3min_grf.mot
version=1
nRows=27
nColumns 19
inDegrees=yes
endheader
time	1_ground_force_vx	1_ground_force_vy	1_ground_force_vz	1_ground_force_px	1_ground_force_py	1_ground_force_pz	1_ground_torque_x	1_ground_torque_y	1_ground_torque_z	2_ground_force_vx	2_ground_force_vy	2_ground_force_vz	2_ground_force_px	2_ground_force_py	2_ground_force_pz	2_ground_torque_x	2_ground_torque_y	2_ground_torque_z
            3.751500	            0.046068	            1.261082	            0.188721	           -0.233013	            0.005581	           -0.255695	            0.084910	           -0.017878	           -0.129964	           -0.421505	           -0.002694	            0.328676	           -0.232311	            0.006130	           -0.833667	            0.000392	           -0.104114	            0.037329
            3.752000	            0.137122	            0.361148	           -0.136363	           -0.233013	            0.005581	           -0.255695	            0.061932	           -0.073796	           -0.013417	           -0.466320	           -0.555643	            0.420581	           -0.232311	            0.006130	           -0.833667	            0.131770	           -0.075147	           -0.000326
            3.752500	           -0.137562	            0.180239	            0.001114	           -0.233013	            0.005581	           -0.255695	            0.093607	           -0.092237	           -0.062893	           -0.278379	           -0.738110	            0.138276	           -0.232311	            0.006130	           -0.833667	           -0.018649	           -0.037879	           -0.000127
            3.753000	            0.412961	           -0.180776	            0.135771	           -0.233013	            0.005581	           -0.255695	            0.144494	           -0.129185	            0.016686	           -0.281682	            0.182464	            0.188489	           -0.232311	            0.006130	           -0.833667	           -0.037316	           -0.057255	            0.112915
            3.753500	            0.229344	            0.540448	            0.093462	           -0.233013	            0.005581	           -0.255695	            0.183460	           -0.110696	           -0.009974	           -0.235517	            0.366949	            0.142198	           -0.232311	            0.006130	           -0.833667	            0.000341	           -0.094527	           -0.000337
            3.754000	            0.412569	            0.720946	            0.047924	           -0.233013	            0.005581	           -0.255695	            0.053888	            0.037256	           -0.001205	           -0.092891	           -0.185658	            0.327880	           -0.232311	            0.006130	           -0.833667	            0.000486	           -0.132405	            0.018378
            3.754500	            0.321779	            0.178755	            0.366824	           -0.233013	            0.005581	           -0.255695	            0.152936	            0.046891	           -0.099291	           -0.373929	           -0.187175	            0.468783	           -0.232311	            0.006130	           -0.833667	           -0.018205	           -0.160764	           -0.000565
            3.755000	            0.000261	           -0.180659	            0.090939	           -0.233013	            0.005581	           -0.255695	            0.127430	           -0.036623	           -0.075659	           -0.329820	            0.550257	            0.283679	           -0.232311	            0.006130	           -0.833667	            0.000195	           -0.047465	            0.056382
            3.755500	            0.091977	            0.900560	            0.187061	           -0.233013	            0.005581	           -0.255695	            0.141798	           -0.064628	            0.003248	            0.001411	           -0.368966	            0.186398	           -0.232311	            0.006130	           -0.833667	           -0.056449	            0.018904	           -0.056459
            3.756000	           -0.000197	            1.081594	            0.004638	           -0.233013	            0.005581	           -0.255695	            0.055596	           -0.120073	           -0.019489	           -0.186029	           -0.369308	            0.092622	           -0.232311	            0.006130	           -0.833667	            0.000213	           -0.056783	            0.018648
            3.756500	            0.412635	            0.360414	            0.046378	           -0.233013	            0.005581	           -0.255695	            0.129228	           -0.073650	           -0.001855	           -0.141735	            0.366618	            0.329871	           -0.232311	            0.006130	           -0.833667	            0.000408	           -0.104249	            0.075030
            3.757000	            0.183013	            0.721491	           -0.089075	           -0.233013	            0.005581	           -0.255695	            0.116164	           -0.101654	            0.025867	           -0.280291	           -0.186335	            0.327959	           -0.232311	            0.006130	           -0.833667	           -0.018470	           -0.085209	            0.018555
            3.757500	            0.321716	           -0.722180	            0.271247	           -0.233013	            0.005581	           -0.255695	            0.063712	            0.009655	           -0.042802	           -0.138618	           -0.552450	           -0.142696	           -0.232311	            0.006130	           -0.833667	            0.075636	           -0.132201	            0.037196
            3.758000	            0.322219	           -0.362632	            0.502073	           -0.233013	            0.005581	           -0.255695	            0.147753	            0.000113	            0.032128	           -0.328552	            0.182462	            0.141581	           -0.232311	            0.006130	           -0.833667	           -0.149891	           -0.104657	            0.037393
            3.758500	            0.138632	            1.439793	            0.556113	           -0.233013	            0.005581	           -0.255695	           -0.043366	           -0.082713	           -0.088425	           -0.279585	           -0.370818	            0.421158	           -0.232311	            0.006130	           -0.833667	           -0.018368	           -0.113567	            0.018453
            3.759000	            0.000278	           -0.901525	            0.041991	           -0.233013	            0.005581	           -0.255695	            0.242780	           -0.138764	            0.036431	           -0.138432	           -0.553957	            0.279657	           -0.232311	            0.006130	           -0.833667	           -0.150052	           -0.066644	           -0.019022
            3.759500	            0.091833	           -0.180445	            0.044855	           -0.233013	            0.005581	           -0.255695	            0.148174	           -0.073552	           -0.071960	           -0.046021	           -0.185656	            0.374788	           -0.232311	            0.006130	           -0.833667	            0.019185	           -0.104114	            0.056172
            3.760000	           -0.045810	           -0.180275	           -0.000659	           -0.233013	            0.005581	           -0.255695	            0.131336	           -0.036647	           -0.077624	           -0.419552	           -0.554804	            0.232849	           -0.232311	            0.006130	           -0.833667	           -0.112337	           -0.104387	           -0.000323
            3.760500	            0.320574	            0.541252	           -0.090189	           -0.233013	            0.005581	           -0.255695	            0.191138	           -0.036470	           -0.062159	           -0.139097	           -0.369808	            0.280314	           -0.232311	            0.006130	           -0.833667	           -0.055922	           -0.113838	            0.056170
            3.761000	            0.092189	            0.359566	            0.230598	           -0.233013	            0.005581	           -0.255695	            0.102584	            0.018638	           -0.015076	           -0.185926	           -0.370145	            0.327262	           -0.232311	            0.006130	           -0.833667	           -0.036939	           -0.179602	           -0.038325
            3.761500	            0.137496	            0.180292	            0.000432	           -0.233013	            0.005581	           -0.255695	            0.018536	           -0.027422	           -0.050700	           -0.048803	            0.551941	            0.095847	           -0.232311	            0.006130	           -0.833667	           -0.018478	           -0.085142	           -0.000296
            3.762000	            0.046119	            0.359950	            0.139000	           -0.233013	            0.005581	           -0.255695	            0.050282	           -0.064749	            0.020338	           -0.141070	            0.182469	            0.329214	           -0.232311	            0.006130	           -0.833667	           -0.074707	           -0.113905	            0.056178
            3.762500	           -0.045795	            0.360326	            0.047516	           -0.233013	            0.005581	           -0.255695	            0.110469	           -0.157136	           -0.002916	           -0.513958	           -0.370660	            0.139689	           -0.232311	            0.006130	           -0.833667	           -0.112618	           -0.028698	           -0.018903
            3.763000	           -0.137415	           -0.000223	            0.046197	           -0.233013	            0.005581	           -0.255695	            0.072894	           -0.045862	           -0.100232	           -0.142400	            0.550766	            0.330528	           -0.232311	            0.006130	           -0.833667	           -0.018427	           -0.103913	           -0.038063
            3.763500	            0.092060	           -0.180838	            0.136567	           -0.233013	            0.005581	           -0.255695	            0.050548	           -0.101540	           -0.015443	           -0.422211	            0.181789	            0.235477	           -0.232311	            0.006130	           -0.833667	           -0.074731	           -0.122887	           -0.075807
            3.764000	           -0.045975	            0.721054	            0.003206	           -0.233013	            0.005581	           -0.255695	            0.130808	           -0.064458	           -0.058976	           -0.327723	           -0.003025	            0.516349	           -0.232311	            0.006130	           -0.833667	           -0.093484	           -0.114040	            0.075036
            3.764500	            0.137643	           -0.000170	            0.045515	           -0.233013	            0.005581	           -0.255695	            0.110788	           -0.018562	            0.043106	           -0.325811	           -0.554801	            0.326665	           -0.232311	            0.006130	           -0.833667	            0.019169	           -0.103979	            0.018471
